<svg width="1024" height="1024" viewBox="0 0 1024 1024" fill="none" xmlns="http://www.w3.org/2000/svg">
    <path
        d="M502 0H520L521 3V281L530 283L535 288V295L543 296L559 302L571 309L583 320L589 331L591 337V345L590 353L592 358V367L588 375L592 387V394L589 401L590 408L592 413V420L589 428L590 434L592 438V447L590 454L591 459L595 464L599 477L600 507L604 524L610 540L619 557L633 578L646 596L657 611L668 629L675 644L682 665L686 684L687 692V726L685 743L681 760L673 781L661 804L651 818L640 831L630 841L619 850L606 859L590 868L572 876L552 882L535 885L526 886H498L476 883L454 877L436 869L421 861L404 849L390 837L378 824L365 807L355 789L346 768L340 747L337 728L336 716V703L338 683L342 664L349 644L357 627L366 613L381 591L397 568L410 546L417 532L422 517L423 512L425 468L429 462L433 459H435L434 456V442L436 439L435 434L433 429V419L436 410L433 403V394L436 384L433 377V369L436 359L433 349V341L436 330L443 318L450 311L461 304L477 297L484 295H488V288L493 283L502 280V0Z"
        fill="#FBDA54" />
    <path
        d="M502 0H520L521 3V281L530 283L535 288V295L543 296L559 302L571 309L583 320L589 331L591 337V345L590 353L592 358V367L588 375L592 387V394L589 401L590 408L592 413V420L589 428L590 434L592 438V447L590 454L591 459L595 464L599 477L600 507L604 524L610 540L619 557L633 578L646 596L657 611L668 629L675 644L682 665L686 684L687 692V726L685 743L681 760L673 781L661 804L651 818L640 831L630 841L619 850L606 859L590 868L572 876L552 882L535 885L526 886H498L476 883L454 877L436 869L421 861L404 849L390 837L378 824L365 807L355 789L346 768L340 747L337 728L336 716V703L338 683L342 664L349 644L357 627L366 613L381 591L397 568L410 546L417 532L422 517L423 512L425 468L429 462L433 459H435L434 456V442L436 439L435 434L433 429V419L436 410L433 403V394L436 384L433 377V369L436 359L433 349V341L436 330L443 318L450 311L461 304L477 297L484 295H488V288L493 283L502 280V0ZM539 469L531 470V608L532 609L560 610L566 614L570 619L578 626L592 640L594 645V654L589 662L583 665H528L524 663L515 666L503 665L499 662L493 665H476L469 664V666L445 665L437 661L432 653V643L438 634L451 622L459 614L467 610L493 609L494 608L493 471L492 470H442L439 473L438 504L436 521L431 537L423 553L408 577L395 596L381 617L374 627L365 644L359 659L353 682L351 699V720L354 744L360 764L366 779L375 796L384 808L396 822L406 832L419 842L432 850L448 858L463 864L488 870L495 871H529L555 866L575 859L591 851L607 841L620 830L626 825L633 817L643 805L654 787L662 770L668 751L672 729L673 718V698L670 678L664 656L655 635L641 613L633 603L618 581L606 563L596 545L589 524L586 510L585 502V476L582 471L577 469H539Z"
        fill="#0A0A0A" />
    <path
        d="M440 930H582L629 932L671 936L687 939L695 942L694 946L679 950L646 954L596 957L565 958H468L429 957L379 954L352 951L338 948L332 945L334 941L343 938L360 935L394 932L440 930Z"
        fill="#0A0A0A" />
    <path
        d="M505 304H522L542 308L554 313L565 320L572 327L577 336L578 342L576 344L486 349L457 351H448L447 350V338L453 326L461 318L477 310L496 305L505 304Z"
        fill="#82807F" />
    <path d="M501 470H522L523 510V598L522 609H501V470Z" fill="#FFDC92" />
    <path
        d="M376 655L377 658L372 677L370 691V724L375 749L381 766L392 787L404 803L413 813L427 824L441 833L457 841L475 847L491 850L502 851H519L536 849L557 844L576 836L592 827L604 818L616 807L624 798L636 780L644 764L652 740L655 721V691L654 676H655L658 694V728L655 746L648 767L636 790L624 806L613 818L602 827L588 837L572 845L557 851L538 856L522 858H501L479 855L462 850L447 844L431 835L419 826L407 815L399 807L387 790L379 775L371 754L367 736L366 727V696L369 678L373 663L376 655Z"
        fill="#0B1322" />
    <path d="M558 437H575L578 442L577 452L572 457H486L448 456L447 455V446L449 444L472 442L558 437Z" fill="#82807F" />
    <path
        d="M691 448H694L695 451L696 465L699 474L705 484L714 490L721 493L732 495V499L717 502L706 508L700 516L696 527L695 540L693 544H691L690 542L689 528L685 517L679 509L670 503L658 500L652 499L653 495L668 492L678 486L685 477L689 466L691 448Z"
        fill="#0B1322" />
    <path d="M571 357H576L578 359V367L576 370L537 373L465 377H449L446 372L448 366L455 364L571 357Z" fill="#82807F" />
    <path d="M562 384H575L578 387V394L577 396L572 397L459 404H449L447 401V394L450 391L457 390L562 384Z"
        fill="#82807F" />
    <path d="M568 410H574L578 414V420L576 423L568 424L453 430L448 429L447 427V420L451 417L495 414L568 410Z"
        fill="#82807F" />
    <path
        d="M548 615H556L563 619L578 634L586 641L589 647L588 654L583 659L580 660H556L558 652L557 642L551 632L540 620L538 616L548 615Z"
        fill="#FFDC92" />
    <path
        d="M473 615H486V618L473 635L467 644L466 648V659L449 660L442 658L438 653V643L446 634L454 627L463 618L466 616L473 615Z"
        fill="#FFDC92" />
    <path d="M501 616H522V657L518 660H506L502 658L501 656V616Z" fill="#FFDC92" />
    <path
        d="M692 473H694L699 483L708 492L714 496V498L704 504L697 512L693 520L690 517L684 508L677 502L671 498V496L681 489L687 482L692 473Z"
        fill="#FFDC92" />
    <path
        d="M340 399L343 400L347 416L352 424L356 427L364 428V431L354 435L349 440L345 451L343 461H341L337 444L332 436L326 433L317 430L318 428L329 426L332 425L334 420L338 411L340 399Z"
        fill="#FFDC92" />
    <path
        d="M638 697L640 699L641 706V731L637 751L631 766L623 781L610 796L599 806L588 814L586 813L594 805L603 794L614 779L624 760L632 738L637 713L638 697Z"
        fill="#0B1322" />
    <path d="M529 618L532 619L550 641L552 645V653L547 659L544 660H532L529 658V618Z" fill="#FFDC92" />
    <path d="M492 620H494V656L491 660H477L473 655L472 647L481 634L491 622L492 620Z" fill="#FFDC92" />
    <path
        d="M340 399L343 400L347 416L352 424L356 427L364 428V431L354 435L349 440L345 451L343 461H341L337 444L332 436L326 433L317 430L318 428L329 426L332 425L334 420L338 411L340 399ZM341 410L336 422L330 429L332 433H334L336 437L340 446L341 450H343L346 440L352 433L355 430L348 424L342 410H341Z"
        fill="#0B1322" />
    <path
        d="M697 485L703 487L711 494L714 496V498L704 504L697 512L693 520L690 517L684 508L683 504L693 506L697 503H700L701 500V491L700 488H698L697 485Z"
        fill="#FFDC92" />
    <path d="M481 317L482 320L474 336L469 340L461 342L464 333L468 327L475 321L481 317Z" fill="#0B1322" />
    <path d="M692 473H694L699 483L701 486L696 484L692 482L689 481L692 473Z" fill="#FFDC92" />
    <path d="M677 494H679L681 499V502L675 501L673 497L677 494Z" fill="#FFDC92" />
    <path d="M343 422H347L349 427V430L345 429V427L342 426L343 422Z" fill="#FFDC92" />
</svg>